# xmcd CD database file
#
# Track frame offsets:
#	150
#	33832
#	65340
#	93707
#	142097
#	167707
#	187787
#	206687
#	226102
#
# Disc length: 3523 seconds
#
# Revision: 3
# Processed by: cddbd v1.5.1PL2 Copyright (c) Steve Scherf et al.
# Submitted via: CDex 1.51
#
DISCID=740dc109
DTITLE=FUNKADELIC - One Nation Under A Groove
DYEAR=1978
DGENRE=Funk
TTITLE0=One Nation Under A Groove
TTITLE1=Groovallegiance
TTITLE2=Who Says A Funk Band Can't Play Rock?!
TTITLE3=Promentalshitbackwashpsychosis Enema Squad (The DooDoo Chasers)
TTITLE4=Into You
TTITLE5=Cholly (Funk Get Ready To Roll!)
TTITLE6=Lunchmeataphobia (Think, It Ain't Illegal Yet!)
TTITLE7=P.E.Squad/Doo Doo Chasers ("Going All-The-Way Off"Instrumental Version)
TTITLE8=Maggot Brain
EXTD=YEAR: 1978
EXTT0=
EXTT1=
EXTT2=
EXTT3=
EXTT4=
EXTT5=
EXTT6=
EXTT7=
EXTT8=
PLAYORDER=
